<svg width="33" height="32" viewBox="0 0 33 32" fill="none" xmlns="http://www.w3.org/2000/svg">
<path fill-rule="evenodd" clip-rule="evenodd" d="M10.9541 28.6152C11.3645 28.6152 11.6645 28.7021 11.8539 28.876C12.0434 29.0499 12.1382 29.3202 12.1384 29.6872V31.6539H11.5227V29.7704C11.5227 29.3557 11.2902 29.1483 10.8251 29.1483C10.6242 29.1466 10.427 29.2021 10.2565 29.3083C10.286 29.4324 10.2999 29.5597 10.2978 29.6872V31.6539H9.68208V29.7704C9.68208 29.3557 9.44955 29.1483 8.98448 29.1483C8.77227 29.1485 8.56181 29.1866 8.36304 29.2609V31.6539H7.74768V28.9233C7.95141 28.8221 8.16708 28.7468 8.3896 28.6993C8.62695 28.644 8.86973 28.6152 9.11344 28.6136C9.49744 28.6136 9.78277 28.6882 9.96944 28.8376C10.2769 28.6907 10.6134 28.6147 10.9541 28.6152ZM14.2478 31.7441C13.7785 31.7441 13.4258 31.6098 13.1896 31.3413C12.9534 31.0727 12.8353 30.6817 12.835 30.1685C12.835 29.1297 13.3044 28.6105 14.243 28.6107C14.716 28.6107 15.0716 28.7439 15.3099 29.0104C15.5482 29.2768 15.6675 29.6629 15.6677 30.1685C15.6677 30.6736 15.5446 31.0625 15.2984 31.3352C15.0522 31.6078 14.702 31.7441 14.2478 31.7441ZM14.2418 31.2168C14.7813 31.2168 15.0509 30.8673 15.0507 30.1685C15.0507 29.8209 14.9867 29.5613 14.8587 29.3896C14.7307 29.2178 14.5255 29.1319 14.243 29.1317C13.9578 29.1317 13.7537 29.2196 13.6306 29.3953C13.5075 29.5711 13.4459 29.8288 13.4459 30.1685C13.4459 30.5079 13.5094 30.7675 13.6363 30.9473C13.7633 31.1272 13.9651 31.2166 14.2418 31.2155V31.2168ZM17.723 28.6165C18.1608 28.6165 18.493 28.7487 18.7195 29.0133C18.9461 29.2778 19.0597 29.6525 19.0603 30.1374C19.0603 30.722 18.9245 31.1356 18.653 31.3784C18.3814 31.6212 18.0362 31.7431 17.6174 31.7441C16.7771 31.7441 16.357 31.5191 16.357 31.0689V27.4897H16.9669V28.8001C17.0895 28.7415 17.2183 28.6968 17.3509 28.6667C17.4726 28.6355 17.5974 28.6182 17.723 28.6152V28.6165ZM17.5704 31.2049C17.8904 31.2049 18.1144 31.1121 18.2424 30.9265C18.3704 30.7409 18.4344 30.4862 18.4344 30.1624C18.4344 29.8309 18.367 29.5782 18.2322 29.4043C18.0973 29.2304 17.8971 29.1436 17.6315 29.1438C17.5158 29.1446 17.4006 29.1594 17.2885 29.188C17.1762 29.2151 17.0685 29.2582 16.9685 29.316V30.916C16.9674 31.108 17.1681 31.2039 17.5704 31.2037V31.2049ZM19.756 27.6449H20.4126V28.2078H19.756V27.6449ZM19.7736 28.6993H20.3893L20.395 31.6552H19.7736V28.6993ZM21.2616 31.6552V27.555H21.8715V31.6539L21.2616 31.6552ZM23.9339 28.6081C24.3913 28.6081 24.7265 28.7575 24.9394 29.0561C25.1523 29.3548 25.2568 29.7724 25.253 30.3089H23.1883C23.2082 30.6012 23.2935 30.8234 23.4443 30.9755C23.5951 31.1276 23.8091 31.2036 24.0862 31.2033C24.4182 31.2037 24.7449 31.1201 25.036 30.9605V31.5409C24.7311 31.6764 24.3819 31.7441 23.9883 31.7441C23.5467 31.7441 23.1998 31.6089 22.9477 31.3384C22.6955 31.0679 22.5695 30.6839 22.5698 30.1864C22.5698 29.6769 22.6889 29.2871 22.9272 29.0168C23.1655 28.7465 23.5011 28.6103 23.9339 28.6081ZM23.9163 29.1201C23.7092 29.1201 23.547 29.1755 23.4299 29.2862C23.3128 29.3969 23.2365 29.5845 23.2011 29.8488H24.6258C24.5982 29.596 24.5278 29.4114 24.4146 29.2952C24.3013 29.1789 24.1352 29.1206 23.9163 29.1201ZM18.0363 4.75086C17.3573 4.58297 16.8346 4.49892 16.4683 4.4987C13.7358 4.4987 11.5205 6.7067 11.5205 9.42958C11.5205 12.1525 13.7368 14.3608 16.4683 14.3608C19.1998 14.3608 21.4165 12.1528 21.4165 9.42958C21.4167 9.03177 21.3687 8.6354 21.2738 8.2491L25.2075 7.18958C25.5262 8.40101 25.5864 9.66593 25.3844 10.9022C25.1823 12.1384 24.7225 13.3183 24.0347 14.3653L17.5208 26.4417H11.4862L15.7742 18.5377C15.7976 18.4942 15.7288 18.3982 15.6712 18.3931C11.0891 17.9771 7.5 14.1371 7.5 9.46222C7.5 4.50894 11.5288 0.493902 16.499 0.493902C17.4089 0.492902 18.3136 0.629596 19.1826 0.899342L18.0363 4.75086Z" fill="#006E53"/>
<path d="M16.4386 12.1417C17.9364 12.1417 19.1506 10.9274 19.1506 9.42965C19.1506 7.93186 17.9364 6.71765 16.4386 6.71765C14.9408 6.71765 13.7266 7.93186 13.7266 9.42965C13.7266 10.9274 14.9408 12.1417 16.4386 12.1417Z" fill="#D6E806"/>
<path d="M21.1217 7.58035C20.6519 6.40422 19.7463 5.45474 18.5938 4.92979M22.8478 6.84051C22.1843 5.20931 20.9296 3.88858 19.3345 3.14227M24.5121 6.28595C23.6669 4.13548 22.0048 2.40701 19.8891 1.47827" stroke="#D6E806" stroke-width="1.14286" stroke-linecap="round"/>
</svg>
