<svg width="54" height="32" viewBox="0 0 54 32" fill="none" xmlns="http://www.w3.org/2000/svg">
<g clip-path="url(#clip0_98_31275)">
<path d="M17.4545 6.69968C7.74696 15.6567 11.248 18.6364 13.57 19.7851C15.8919 20.9338 18.9865 19.3565 22.8579 16.2755C26.7293 13.1945 35.6807 7.24731 37.7918 10.2115C39.9029 13.1756 39.9488 19.0493 30.898 26.7886C21.8472 34.5278 19.971 30.0009 24.438 26.4547C28.9049 22.9084 28.0843 20.769 25.9677 20.4596C23.7539 20.1335 21.8417 20.6733 19.8716 24.3554C19.8716 24.3554 16.8568 30.2848 20.7162 31.8064C23.4021 32.8649 31.3373 29.6036 37.1646 23.6252C41.4579 19.2207 44.595 13.9536 43.2838 6.92897C41.5671 -2.28401 27.1621 -2.25507 17.4545 6.69968Z" fill="#FF0001"/>
</g>
<defs>
<clipPath id="clip0_98_31275">
<rect width="69.7143" height="32" fill="white" transform="translate(-7.85547)"/>
</clipPath>
</defs>
</svg>
