<svg width="33" height="32" viewBox="0 0 33 32" fill="none" xmlns="http://www.w3.org/2000/svg">
<path d="M16.5799 28.5672C23.6808 28.5672 29.4372 22.8108 29.4372 15.7099C29.4372 8.60906 23.6808 2.85266 16.5799 2.85266C9.47906 2.85266 3.72266 8.60906 3.72266 15.7099C3.72266 22.8108 9.47906 28.5672 16.5799 28.5672Z" fill="#50B651"/>
<path opacity="0.663" fill-rule="evenodd" clip-rule="evenodd" d="M29.3991 15.674C29.3991 22.7972 23.6247 28.5716 16.5031 28.5716C9.38147 28.5716 3.60547 22.7972 3.60547 15.674C3.60547 12.5229 3.69379 12.0544 4.93411 10.2605C4.93411 10.2605 4.87011 12.2868 6.35587 13.4925C7.27971 14.2416 8.24387 13.7008 10.0087 12.888C11.9178 12.008 13.4698 11.4404 14.6807 11.5901C16.5047 11.816 22.1267 15.1924 25.0608 14.52C27.4048 13.984 27.1575 8.45764 27.1575 8.45764C29.7175 10.9575 29.3991 12.6471 29.3991 15.674Z" fill="url(#paint0_linear_98_31281)"/>
<path opacity="0.586" fill-rule="evenodd" clip-rule="evenodd" d="M22.0352 25.1475C26.6997 20.7599 27.475 15.7333 24.3612 10.0678C24.377 10.0794 24.5697 9.41462 24.9392 8.07361C26.5963 10.0804 27.4775 12.5574 27.5827 15.5046C27.5818 19.322 25.7326 22.5363 22.0352 25.1475Z" fill="url(#paint1_linear_98_31281)"/>
<path opacity="0.744" fill-rule="evenodd" clip-rule="evenodd" d="M19.8229 8.10003C17.5714 6.85395 14.9883 4.34739 15.3317 3.82099C15.675 3.29459 20.1317 3.38515 22.3835 4.63123C24.6354 5.87731 26.5518 9.61523 26.2088 10.1416C25.8658 10.668 22.0744 9.34611 19.8229 8.10003Z" fill="url(#paint2_radial_98_31281)"/>
<path fill-rule="evenodd" clip-rule="evenodd" d="M21.7844 18.8766C19.9166 18.8766 18.4023 17.3192 18.4023 15.3982C18.4023 13.4773 19.9166 11.9202 21.7844 11.9202C23.6523 11.9202 25.1668 13.4773 25.1668 15.3982C25.1668 17.3192 23.6526 18.8766 21.7844 18.8766ZM21.8084 17.7733C22.9742 17.7733 23.9204 16.7099 23.9204 15.3982C23.9204 14.0866 22.9742 13.0242 21.8084 13.0242C20.6427 13.0242 19.6964 14.0875 19.6964 15.3989C19.6964 16.7102 20.6427 17.7733 21.8084 17.7733Z" fill="white"/>
<path fill-rule="evenodd" clip-rule="evenodd" d="M14.8047 9.11938H17.2418V18.8378H15.9039V10.1853H14.8047V9.11938Z" fill="white"/>
<path fill-rule="evenodd" clip-rule="evenodd" d="M12.9895 12.0188H14.2545V20.1346C14.2545 20.8741 13.4766 21.6444 12.7185 21.9759C12.3601 22.1325 11.6987 22.2255 10.7345 22.2549V21.4476C11.6776 21.3424 12.3142 21.1326 12.6442 20.8181C12.8347 20.5535 12.9537 20.2442 12.9898 19.9202V17.5359C12.6517 18.2533 12.2259 18.729 11.7124 18.9628C11.1786 19.2508 10.0922 19.2034 9.64872 18.9628C9.2052 18.7221 8.55464 18.0885 8.2564 17.1449C8.17384 16.8844 7.9684 16.1756 7.98984 15.4245C8.00904 14.7093 8.24584 13.9525 8.44264 13.6415C8.78056 13.1103 9.31336 12.445 10.1204 12.1669C10.5146 12.031 11.2453 11.9822 12.3124 12.0204V12.8233C11.5194 12.7697 11.0247 12.7965 10.8282 12.9036C10.5335 13.0636 9.86824 13.261 9.64872 14.7109C9.4292 16.1609 9.65512 17.3474 10.3511 17.7189C10.5895 17.8469 11.0113 17.9983 11.401 17.8649C12.1498 17.6089 12.8545 16.6959 12.9082 16.0773C12.9624 15.4497 12.9895 14.0969 12.9895 12.0188Z" fill="white"/>
<path fill-rule="evenodd" clip-rule="evenodd" d="M28.9931 18.2556C27.7986 24.0076 22.7016 28.3295 16.5957 28.3295C9.60271 28.3295 3.93359 22.6604 3.93359 15.6674C3.93359 11.3231 6.12143 7.48984 9.45519 5.20984C6.74639 7.45624 5.02159 10.8498 5.02159 14.6447C5.02159 21.4137 10.509 26.9007 17.2776 26.9007C22.7899 26.9007 27.4517 23.262 28.9931 18.2556Z" fill="url(#paint3_radial_98_31281)"/>
<path fill-rule="evenodd" clip-rule="evenodd" d="M16.5971 0.671875C8.31548 0.671875 1.60156 7.38548 1.60156 15.6671C1.60156 23.9487 8.31548 30.6626 16.5971 30.6626C24.8787 30.6626 31.5926 23.9487 31.5926 15.6671C31.5926 7.38548 24.8787 0.671875 16.5971 0.671875ZM16.5971 28.3295C9.60412 28.3295 3.935 22.6604 3.935 15.6674C3.935 11.3231 6.12284 7.4898 9.4566 5.20979C11.5591 3.76982 14.0487 3.00108 16.5971 3.005C23.59 3.005 29.2592 8.6738 29.2592 15.6671C29.2596 16.5366 29.1709 17.4038 28.9945 18.2552C27.8 24.0072 22.703 28.3292 16.5971 28.3292V28.3295Z" fill="white"/>
<defs>
<linearGradient id="paint0_linear_98_31281" x1="16.0048" y1="10.2189" x2="17.6579" y2="25.1479" gradientUnits="userSpaceOnUse">
<stop stop-color="#123214"/>
<stop offset="0.46" stop-color="#3E7C37"/>
<stop offset="0.91" stop-color="#5FBB46"/>
</linearGradient>
<linearGradient id="paint1_linear_98_31281" x1="25.5527" y1="9.24842" x2="25.5527" y2="21.3206" gradientUnits="userSpaceOnUse">
<stop stop-color="white" stop-opacity="0"/>
<stop offset="0.64" stop-color="white" stop-opacity="0.43"/>
<stop offset="1" stop-color="white" stop-opacity="0.42"/>
</linearGradient>
<radialGradient id="paint2_radial_98_31281" cx="0" cy="0" r="1" gradientUnits="userSpaceOnUse" gradientTransform="translate(21.0443 7.06589) rotate(26.7606) scale(6.35338 2.64607)">
<stop offset="0.13" stop-color="white"/>
<stop offset="0.29" stop-color="white" stop-opacity="0.69"/>
<stop offset="0.45" stop-color="white" stop-opacity="0.4"/>
<stop offset="0.59" stop-color="white" stop-opacity="0.18"/>
<stop offset="0.69" stop-color="white" stop-opacity="0.05"/>
<stop offset="0.74" stop-color="white" stop-opacity="0"/>
</radialGradient>
<radialGradient id="paint3_radial_98_31281" cx="0" cy="0" r="1" gradientUnits="userSpaceOnUse" gradientTransform="translate(18.7669 12.7501) rotate(39.84) scale(14.2378 15.5192)">
<stop offset="0.86" stop-opacity="0"/>
<stop offset="0.98" stop-opacity="0.47"/>
<stop offset="1"/>
</radialGradient>
</defs>
</svg>
