<svg width="337" height="19" viewBox="0 0 337 19" fill="none" xmlns="http://www.w3.org/2000/svg">
<path fill-rule="evenodd" clip-rule="evenodd" d="M143.278 2.6281C127.54 3.18603 111.986 3.87206 96.8188 4.62207C75.3478 5.68306 53.885 6.78064 32.5517 8.51847C25.8364 9.06726 19.017 9.41481 12.3437 10.1008C8.15461 10.5307 2.6 11.1434 1.87103 11.2715C1.48974 11.3446 1.3234 11.4545 1.26965 11.4911C0.89173 11.7472 0.960687 11.994 1.174 12.1861C1.25967 12.2684 1.47628 12.4697 2.0776 12.4972C42.292 14.3722 83.4135 10.7136 123.677 10.3295C193.5 9.67091 265.44 12.2868 334.709 17.9942C335.314 18.0399 335.902 17.8112 335.986 17.4728C336.086 17.1435 335.65 16.8234 335.045 16.7776C265.658 11.0611 193.601 8.43605 123.643 9.10375C86.1194 9.46046 47.855 12.6709 10.2794 11.5734C11.1427 11.4819 11.9893 11.3904 12.762 11.3081C19.4084 10.6221 26.1992 10.2837 32.8876 9.73491C54.1756 7.99708 75.5947 6.89951 97.0372 5.84767C123.643 4.53058 151.408 3.39641 179.391 2.86591C189.402 2.94823 199.379 3.03058 209.356 3.1312C230.94 3.35071 252.624 3.99097 274.157 4.85073C280.641 5.11598 287.124 5.39035 293.608 5.62816C295.758 5.71048 301.301 5.94825 302.073 5.92995C303.031 5.91166 303.215 5.47267 303.232 5.3995C303.283 5.23486 303.249 5.00619 302.779 4.81411C302.728 4.78667 302.426 4.69515 301.754 4.64027C262.601 1.40243 220.795 0.86287 179.424 1.64032C135.787 1.3019 91.9814 1.15549 48.4547 1C47.8316 1 47.3226 1.27443 47.3176 1.61285C47.3142 1.95127 47.8164 2.22571 48.4395 2.23486C79.9567 2.34462 111.633 2.45431 143.278 2.6281Z" fill="#00AB1B" stroke="#00AB1B"/>
</svg>
