<svg width="32" height="32" viewBox="0 0 32 32" fill="none" xmlns="http://www.w3.org/2000/svg">
<path d="M0 0H32V32H0V0Z" fill="white"/>
<path d="M1.55859 1.55688H30.4418V30.4401H1.55859V1.55688Z" fill="#FFCB05"/>
<path d="M29.5384 15.9149C29.5384 18.9981 23.4776 21.4973 16.0024 21.4973C8.52564 21.4973 2.46484 18.9981 2.46484 15.9149C2.46484 12.8317 8.52564 10.3341 16.0024 10.3341C23.4776 10.3341 29.5384 12.8317 29.5384 15.9149Z" fill="#00678F"/>
<path d="M10.9688 13.088V16.3392L12.4392 13.088H14.748L13.3496 18.6704H11.8792L12.7176 15.0672L10.9688 18.6704H9.78163V15.0672L8.86963 18.6704H7.33203L8.73203 13.088H10.9688Z" fill="white"/>
<path d="M17.0184 17.963L16.8072 18.7406H15.1992L15.4088 17.963H17.0184Z" fill="#ED1D24"/>
<path d="M21.8127 13.088L22.5135 16.0576L23.2815 13.088H24.7503L23.3519 18.6704H21.8127L21.0431 15.632L20.2735 18.6704H18.8047L20.2031 13.088H21.8127Z" fill="white"/>
<path d="M16.322 14.5024L15.53 17.5696H17.138L17.9316 14.5024H19.4004L19.7492 13.088H15.202L14.8516 14.5024H16.322Z" fill="#FFCB05"/>
</svg>
