<svg width="37" height="51" viewBox="0 0 37 51" fill="none" xmlns="http://www.w3.org/2000/svg">
<path d="M27.059 7.36689C24.8039 5.7998 21.6141 5.05737 17.2684 5.05737H5.3595V43.7817H10.282V28.7374H17.2684C21.7508 28.7374 25.024 27.8028 27.2791 25.85C29.9198 23.8138 31.2124 20.4862 31.2124 16.3061C31.2124 12.1249 29.8376 9.1552 27.059 7.36689ZM24.1993 22.3289C22.6311 23.9238 20.1015 24.4474 16.6361 24.4474H10.282V9.31967H16.6361C20.0181 9.31967 22.4666 9.67756 24.1171 11.0257C25.4097 12.0983 26.1799 13.8576 26.1799 16.4984C26.1799 19.2492 25.4641 21.092 24.1993 22.3289Z" fill="#F6F9F3"/>
<path d="M2.50006 6.29872L30.71 32.1215" stroke="#C20701" stroke-width="3.33976" stroke-linecap="round"/>
<path d="M6.7901 2.00013L35 27.8229" stroke="#C20701" stroke-width="3.33976" stroke-linecap="round"/>
<path d="M7.21103 46.0298C7.5446 46.0298 7.82837 46.0923 8.06349 46.2151C8.30093 46.3356 8.48045 46.5058 8.60091 46.7247C8.72368 46.9448 8.78623 47.1996 8.78623 47.4892C8.78623 47.7833 8.72368 48.0393 8.60091 48.2582C8.48045 48.4748 8.30093 48.6451 8.06349 48.7678C7.82837 48.8883 7.5446 48.9485 7.21103 48.9485H6.33077V50.6859H5.41345V46.0298H7.21103ZM7.09057 48.2212C7.60251 48.2212 7.85964 47.9779 7.85964 47.4892C7.85964 47.0015 7.60251 46.7572 7.09057 46.7572H6.33077V48.2212H7.09057Z" fill="#F6F9F3"/>
<path d="M13.5319 50.6859H12.5636L12.2115 49.611H10.4278L10.0757 50.6859H9.13062L10.7382 46.0298H11.9196L13.5319 50.6859ZM11.2757 47.0027L10.678 48.8373H11.9567L11.3544 47.0027H11.2757Z" fill="#F6F9F3"/>
<path d="M16.1518 50.6859H15.2299V48.8559L13.6223 46.0298H14.6091L15.6746 47.8598H15.7534L16.7958 46.0298H17.7595L16.1518 48.8559V50.6859Z" fill="#F6F9F3"/>
<path d="M20.3193 50.7511C19.893 50.7511 19.5155 50.6654 19.1888 50.4917C18.8645 50.3191 18.6097 50.0539 18.4244 49.6948C18.2391 49.3369 18.1464 48.891 18.1464 48.3559C18.1464 47.8254 18.2391 47.3807 18.4244 47.0216C18.6097 46.6637 18.8645 46.3985 19.1888 46.2248C19.5155 46.0487 19.893 45.9607 20.3193 45.9607C20.7455 45.9607 21.1208 46.0476 21.4451 46.2201C21.7717 46.3939 22.0265 46.6603 22.2095 47.0216C22.3913 47.3807 22.4828 47.8254 22.4828 48.3559C22.4828 48.891 22.3913 49.3369 22.2095 49.6948C22.0265 50.0539 21.7717 50.3191 21.4451 50.4917C21.1208 50.6654 20.7455 50.7511 20.3193 50.7511ZM20.3193 49.9543C20.7142 49.9543 21.0154 49.828 21.2227 49.5744C21.4323 49.3219 21.5377 48.9153 21.5377 48.3559C21.5377 47.8 21.4323 47.3957 21.2227 47.1421C21.0154 46.8861 20.7142 46.7576 20.3193 46.7576C19.9208 46.7576 19.6162 46.8861 19.4066 47.1421C19.1993 47.3957 19.0962 47.8 19.0962 48.3559C19.0962 48.9153 19.1993 49.3219 19.4066 49.5744C19.6162 49.828 19.9208 49.9543 20.3193 49.9543Z" fill="#F6F9F3"/>
<path d="M26.4116 46.0298V46.7989H24.3777V48.0312H26.2216V48.7956H24.3777V50.6859H23.4604V46.0298H26.4116Z" fill="#F6F9F3"/>
<path d="M30.1758 46.0298V46.7989H28.142V48.0312H29.9859V48.7956H28.142V50.6859H27.2247V46.0298H30.1758Z" fill="#F6F9F3"/>
</svg>
